<?xml version="1.0" standalone="no"?><!DOCTYPE svg PUBLIC "-//W3C//DTD SVG 1.1//EN" "http://www.w3.org/Graphics/SVG/1.1/DTD/svg11.dtd"><svg t="1550734838632" class="icon" style="" viewBox="0 0 1024 1024" version="1.1" xmlns="http://www.w3.org/2000/svg" p-id="9061" xmlns:xlink="http://www.w3.org/1999/xlink" width="200" height="200"><defs><style type="text/css">@font-face { font-family: rbicon; src: url("chrome-extension://dipiagiiohfljcicegpgffpbnjmgjcnf/fonts/rbicon.woff2") format("woff2"); font-weight: normal; font-style: normal; }
</style></defs><path d="M513.4 555.2l-9.6-2.9L87 374.3l423.6-155.5 7.3 1.6L937 374.3 513.4 555.2zM179.6 376.7L512 518.6l332.4-141.9-332.4-122-332.4 122z" p-id="9062" fill="#ffffff"></path><path d="M517.7 805.1c-192.9 0-262.6-120.3-265.5-125.5l-2.2-3.9v-164h34.2v154.7C296.6 685.3 361.4 771 517.7 771c156.2 0 221-85.5 233.5-104.5V511.7h34.2v164l-2.2 3.9c-2.9 5.2-72.6 125.5-265.5 125.5zM813.8 706.7h49.8l-27.3-268.4z" p-id="9063" fill="#ffffff"></path></svg>